<?xml version="1.0" encoding="UTF-8"?>
<svg version="1.2" baseProfile="tiny-ps" xmlns="http://www.w3.org/2000/svg" viewBox="0 0 512 512">
  <title>Snoyman</title>
  <rect width="512" height="512" fill="#FFFFFF"/>
  <path d="M70 256 H442" fill="none" stroke="#31AEE2" stroke-width="18" stroke-linecap="round"/>
  <circle cx="256" cy="256" r="166" fill="#FFFFFF" stroke="#31AEE2" stroke-width="24"/>
  <path fill="#31AEE2" d="m167.97998 354.10156v-53.58398h19.22363q4.38965 25.42969 20.73731 37.99316 16.34765 12.56348 45.25879 12.56348 23.46191 0 35.72265-8.93067 12.26075-8.93066 12.26075-26.18652 0-13.62305-8.3252-21.19141-8.3252-7.56835-34.36035-14.07714l-33.90625-8.3252q-33.14942-8.47656-46.6211-23.46191-13.47167-15.13672-13.47167-42.98828 0-33.60352 22.25097-52.22168 22.40235-18.76954 62.66602-18.76954 19.8291 0 41.17187 3.33008 21.49414 3.33008 44.50196 9.99024v49.95117h-19.22364q-4.38965-23.31055-19.22363-34.05762-14.83398-10.89844-42.23145-10.89844-22.40234 0-33.90625 7.8711-11.35253 7.71972-11.35253 23.15918 0 14.07715 7.87109 21.49414 7.87109 7.26562 38.59863 15.13672l33.90625 8.32519q31.48438 7.8711 45.56153 24.52149 14.22851 16.65039 14.22851 45.86425 0 34.20899-23.61328 52.07032-23.61328 17.70996-69.47754 17.70996-22.09961 0-43.89648-3.78418-21.79688-3.78418-44.35059-11.50391z"/>
</svg>
